<mxfile host="app.diagrams.net" agent="Mozilla/5.0 (Windows NT 10.0; Win64; x64) AppleWebKit/537.36 (KHTML, like Gecko) Chrome/131.0.0.0 Safari/537.36" version="26.0.2">
  <diagram name="Page-1" id="ggI55vQS-Lxw6V_FFvXa">
    <mxGraphModel dx="1259" dy="686" grid="1" gridSize="10" guides="1" tooltips="1" connect="1" arrows="1" fold="1" page="1" pageScale="1" pageWidth="850" pageHeight="1100" math="0" shadow="0">
      <root>
        <mxCell id="0" />
        <mxCell id="1" parent="0" />
        <mxCell id="HaTAzY8a0Nn5AFpVN7uf-1" value="&lt;b&gt;CM&lt;br&gt;Server&lt;/b&gt;" style="rounded=1;whiteSpace=wrap;html=1;fillColor=#dae8fc;gradientColor=#7ea6e0;strokeColor=#6c8ebf;" vertex="1" parent="1">
          <mxGeometry x="40" y="170" width="120" height="60" as="geometry" />
        </mxCell>
        <mxCell id="HaTAzY8a0Nn5AFpVN7uf-22" style="edgeStyle=orthogonalEdgeStyle;rounded=0;orthogonalLoop=1;jettySize=auto;html=1;entryX=1;entryY=0.5;entryDx=0;entryDy=0;flowAnimation=1;" edge="1" parent="1" source="HaTAzY8a0Nn5AFpVN7uf-2" target="HaTAzY8a0Nn5AFpVN7uf-1">
          <mxGeometry relative="1" as="geometry" />
        </mxCell>
        <mxCell id="HaTAzY8a0Nn5AFpVN7uf-2" value="&lt;b&gt;NODE&lt;/b&gt;" style="rounded=0;whiteSpace=wrap;html=1;fillColor=#d5e8d4;gradientColor=#97d077;strokeColor=#82b366;" vertex="1" parent="1">
          <mxGeometry x="280" y="40" width="140" height="80" as="geometry" />
        </mxCell>
        <mxCell id="HaTAzY8a0Nn5AFpVN7uf-24" style="edgeStyle=orthogonalEdgeStyle;rounded=0;orthogonalLoop=1;jettySize=auto;html=1;entryX=1;entryY=0.5;entryDx=0;entryDy=0;flowAnimation=1;" edge="1" parent="1" source="HaTAzY8a0Nn5AFpVN7uf-4" target="HaTAzY8a0Nn5AFpVN7uf-1">
          <mxGeometry relative="1" as="geometry" />
        </mxCell>
        <mxCell id="HaTAzY8a0Nn5AFpVN7uf-4" value="&lt;b&gt;NODE&lt;/b&gt;" style="rounded=0;whiteSpace=wrap;html=1;fillColor=#d5e8d4;gradientColor=#97d077;strokeColor=#82b366;" vertex="1" parent="1">
          <mxGeometry x="280" y="290" width="140" height="80" as="geometry" />
        </mxCell>
        <mxCell id="HaTAzY8a0Nn5AFpVN7uf-23" style="edgeStyle=orthogonalEdgeStyle;rounded=0;orthogonalLoop=1;jettySize=auto;html=1;entryX=1;entryY=0.5;entryDx=0;entryDy=0;flowAnimation=1;" edge="1" parent="1" source="HaTAzY8a0Nn5AFpVN7uf-5" target="HaTAzY8a0Nn5AFpVN7uf-1">
          <mxGeometry relative="1" as="geometry" />
        </mxCell>
        <mxCell id="HaTAzY8a0Nn5AFpVN7uf-5" value="&lt;b&gt;NODE&lt;/b&gt;" style="rounded=0;whiteSpace=wrap;html=1;fillColor=#d5e8d4;gradientColor=#97d077;strokeColor=#82b366;" vertex="1" parent="1">
          <mxGeometry x="280" y="160" width="140" height="80" as="geometry" />
        </mxCell>
        <mxCell id="HaTAzY8a0Nn5AFpVN7uf-9" value="&lt;b&gt;Agent&lt;/b&gt;" style="ellipse;whiteSpace=wrap;html=1;" vertex="1" parent="1">
          <mxGeometry x="280" y="80" width="50" height="40" as="geometry" />
        </mxCell>
        <mxCell id="HaTAzY8a0Nn5AFpVN7uf-10" value="&lt;b&gt;Agent&lt;/b&gt;" style="ellipse;whiteSpace=wrap;html=1;" vertex="1" parent="1">
          <mxGeometry x="280" y="200" width="50" height="40" as="geometry" />
        </mxCell>
        <mxCell id="HaTAzY8a0Nn5AFpVN7uf-11" value="&lt;b&gt;Agent&lt;/b&gt;" style="ellipse;whiteSpace=wrap;html=1;" vertex="1" parent="1">
          <mxGeometry x="280" y="330" width="50" height="40" as="geometry" />
        </mxCell>
        <mxCell id="HaTAzY8a0Nn5AFpVN7uf-15" value="&lt;b&gt;NODE&lt;/b&gt;" style="rounded=0;whiteSpace=wrap;html=1;fillColor=#d5e8d4;gradientColor=#97d077;strokeColor=#82b366;" vertex="1" parent="1">
          <mxGeometry x="710" y="35" width="140" height="80" as="geometry" />
        </mxCell>
        <mxCell id="HaTAzY8a0Nn5AFpVN7uf-16" value="&lt;b&gt;NODE&lt;/b&gt;" style="rounded=0;whiteSpace=wrap;html=1;fillColor=#d5e8d4;gradientColor=#97d077;strokeColor=#82b366;" vertex="1" parent="1">
          <mxGeometry x="710" y="285" width="140" height="80" as="geometry" />
        </mxCell>
        <mxCell id="HaTAzY8a0Nn5AFpVN7uf-17" value="&lt;b&gt;NODE&lt;/b&gt;" style="rounded=0;whiteSpace=wrap;html=1;fillColor=#d5e8d4;gradientColor=#97d077;strokeColor=#82b366;" vertex="1" parent="1">
          <mxGeometry x="710" y="155" width="140" height="80" as="geometry" />
        </mxCell>
        <mxCell id="HaTAzY8a0Nn5AFpVN7uf-25" style="edgeStyle=orthogonalEdgeStyle;rounded=0;orthogonalLoop=1;jettySize=auto;html=1;entryX=0;entryY=0.5;entryDx=0;entryDy=0;flowAnimation=1;" edge="1" parent="1" source="HaTAzY8a0Nn5AFpVN7uf-21" target="HaTAzY8a0Nn5AFpVN7uf-15">
          <mxGeometry relative="1" as="geometry" />
        </mxCell>
        <mxCell id="HaTAzY8a0Nn5AFpVN7uf-26" style="edgeStyle=orthogonalEdgeStyle;rounded=0;orthogonalLoop=1;jettySize=auto;html=1;entryX=0;entryY=0.5;entryDx=0;entryDy=0;flowAnimation=1;" edge="1" parent="1" source="HaTAzY8a0Nn5AFpVN7uf-21" target="HaTAzY8a0Nn5AFpVN7uf-17">
          <mxGeometry relative="1" as="geometry" />
        </mxCell>
        <mxCell id="HaTAzY8a0Nn5AFpVN7uf-27" style="edgeStyle=orthogonalEdgeStyle;rounded=0;orthogonalLoop=1;jettySize=auto;html=1;entryX=0;entryY=0.5;entryDx=0;entryDy=0;flowAnimation=1;" edge="1" parent="1" source="HaTAzY8a0Nn5AFpVN7uf-21" target="HaTAzY8a0Nn5AFpVN7uf-16">
          <mxGeometry relative="1" as="geometry" />
        </mxCell>
        <mxCell id="HaTAzY8a0Nn5AFpVN7uf-21" value="&lt;b&gt;Ansibe&lt;br&gt;Server&lt;/b&gt;" style="rounded=1;whiteSpace=wrap;html=1;fillColor=#dae8fc;gradientColor=#7ea6e0;strokeColor=#6c8ebf;" vertex="1" parent="1">
          <mxGeometry x="480" y="165" width="120" height="60" as="geometry" />
        </mxCell>
        <mxCell id="HaTAzY8a0Nn5AFpVN7uf-28" value="&lt;b&gt;Pull&lt;/b&gt;" style="text;html=1;align=center;verticalAlign=middle;resizable=0;points=[];autosize=1;strokeColor=none;fillColor=none;" vertex="1" parent="1">
          <mxGeometry x="325" y="380" width="50" height="30" as="geometry" />
        </mxCell>
        <mxCell id="HaTAzY8a0Nn5AFpVN7uf-29" value="&lt;b&gt;Push&lt;/b&gt;" style="text;html=1;align=center;verticalAlign=middle;resizable=0;points=[];autosize=1;strokeColor=none;fillColor=none;" vertex="1" parent="1">
          <mxGeometry x="765" y="380" width="50" height="30" as="geometry" />
        </mxCell>
        <mxCell id="HaTAzY8a0Nn5AFpVN7uf-30" value="&lt;b&gt;22&lt;/b&gt;" style="text;html=1;align=center;verticalAlign=middle;resizable=0;points=[];autosize=1;strokeColor=none;fillColor=none;" vertex="1" parent="1">
          <mxGeometry x="660" y="40" width="40" height="30" as="geometry" />
        </mxCell>
      </root>
    </mxGraphModel>
  </diagram>
</mxfile>
